<svg version="1.1" xmlns="http://www.w3.org/2000/svg" xmlns:xlink="http://www.w3.org/1999/xlink" x="0px" y="0px"
                                     viewBox="0 0 158.7 37.2" enable-background="new 0 0 158.7 37.2" xml:space="preserve">
                                <g>
                                    <g>
                                        <path fill="#26A9E0" d="M11.7,26.2c0.6,0.8,1.4,1.5,2.2,2.1c2,1.5,4.5,2.4,7.2,2.4s5.2-0.9,7.2-2.4c0.8-0.6,1.5-1.3,2.2-2.1
                                            c-0.6-0.8-1.4-1.5-2.2-2.1c-2-1.5-4.5-2.4-7.2-2.4s-5.2,0.9-7.2,2.4C13,24.7,12.3,25.4,11.7,26.2z"/>
                                        <circle fill="#26A9E0" cx="21.1" cy="14.1" r="4.5"/>
                                        <path fill="#26A9E0" d="M21,0.6c-3.5,0-6.9,1-9.9,2.9L12.8,6c2.4-1.6,5.3-2.4,8.2-2.4c8.3,0,15.1,6.8,15.1,15.1
                                            c0,8.3-6.8,15.1-15.1,15.1S6,26.9,6,18.6C6,17.7,6,16.8,6.2,16l2.4,1.2l0-9.5L1,13.3l2.4,1.2C3.1,15.9,3,17.2,3,18.6
                                            c0,10,8.1,18.1,18.1,18.1s18.1-8.1,18.1-18.1S31,0.6,21,0.6z"/>
                                    </g>
                                    <g>
                                        <path fill="#231F20" d="M65.2,17.4c-3.3,0-5.9,2.7-5.9,5.9c0,3.3,2.7,5.9,5.9,5.9s5.9-2.7,5.9-5.9C71.2,20.1,68.5,17.4,65.2,17.4z
                                             M68.2,23.6c0,0.1,0,0.2-0.1,0.4c-0.1,0.3-0.2,0.5-0.3,0.7c0,0,0,0,0,0.1c-0.1,0.1-0.1,0.2-0.2,0.3c-0.5,0.7-1.4,1.2-2.3,1.2
                                            c-1.6,0-3-1.3-3-3c0-1.6,1.3-3,3-3c1,0,1.8,0.5,2.3,1.2c0.1,0.1,0.2,0.2,0.2,0.3c0,0,0,0,0,0.1c0.1,0.2,0.2,0.5,0.3,0.7
                                            c0,0.1,0.1,0.2,0.1,0.4c0,0.1,0,0.2,0,0.3C68.2,23.4,68.2,23.5,68.2,23.6z"/>
                                        <path fill="#231F20" d="M46.5,15.9c0-2.6,2.1-4.9,5.5-4.9c2.2,0,4,0.7,5,1.9l-1.7,2.3c-0.9-0.8-1.7-1.3-3.1-1.3
                                            c-1.5,0-2.5,0.8-2.5,1.9c0,3.6,8,2.5,8,8.4c0,3-2.6,5-5.9,5c-2.3,0-4.9-1-5.8-2.8l1.8-2.1c1,1.3,2.7,2,4,2c1.5,0,2.6-0.7,2.6-2.1
                                            C54.5,20.8,46.5,21.7,46.5,15.9z"/>
                                        <path fill="#231F20" d="M73.6,14.6h2.9v14.3l-2.9,0V14.6z"/>
                                        <path fill="#231F20" d="M91.8,17.6h2.9v1.1c0.5-0.7,1.2-1.3,2.6-1.3c0.9,0,1.4,0.2,1.8,0.4l-1,2.7c-0.6-0.3-0.9-0.4-1.5-0.4
                                            c-1,0-1.5,0.6-1.9,1.2V29h-2.9V17.6z"/>
                                        <path fill="#231F20" d="M108.2,15.9c0-2.6,2.1-4.9,5.5-4.9c2.2,0,4,0.7,5,1.9l-1.7,2.3c-0.9-0.8-1.7-1.3-3.1-1.3
                                            c-1.5,0-2.5,0.8-2.5,1.9c0,3.6,8,2.5,8,8.4c0,3-2.6,5-5.9,5c-2.3,0-4.9-1-5.8-2.8l1.8-2.1c1,1.3,2.7,2,4,2c1.5,0,2.6-0.7,2.6-2.1
                                            C116.1,20.8,108.2,21.7,108.2,15.9z"/>
                                        <path fill="#231F20" d="M121.7,14.5h2.9v3.1h3.6v2.7h-3.6v4.1c0,1.2,0.4,2,1.4,2c0.8,0,1.3-0.4,1.7-0.7l0.9,2.2
                                            c-0.7,0.6-1.9,1.1-3.3,1.1c-2.6,0-3.5-1.7-3.5-4.6V14.5z"/>
                                        <path fill="#231F20" d="M131.5,18.4c1-0.6,2.5-1.1,4-1.1c3.3,0,4.5,1.7,4.5,4.7V29h-2.5v-1.3c-0.6,0.9-1.8,1.5-3.3,1.5
                                            c-2.1,0-3.5-1.3-3.5-3.5c0-2.5,1.8-3.7,4.1-3.7c1,0,2,0.3,2.6,0.7c0.1-1.9-0.4-2.9-2.1-2.9c-1.3,0-2.1,0.4-3,0.8L131.5,18.4z
                                             M137.3,25.6v-1.2c-0.5-0.4-1.2-0.6-2-0.6c-1,0-1.8,0.5-1.8,1.4c0,0.9,0.7,1.3,1.6,1.3C136.3,26.7,136.9,26.1,137.3,25.6z"/>
                                        <path fill="#231F20" d="M80,18.4c1-0.6,2.5-1.1,4-1.1c3.3,0,4.5,1.7,4.5,4.7V29H86v-1.3c-0.6,0.9-1.8,1.5-3.3,1.5
                                            c-2.1,0-3.5-1.3-3.5-3.5c0-2.5,1.8-3.7,4.1-3.7c1,0,2,0.3,2.6,0.7c0.1-1.9-0.4-2.9-2.1-2.9c-1.3,0-2.1,0.4-3,0.8L80,18.4z
                                             M85.8,25.6v-1.2c-0.5-0.4-1.2-0.6-2-0.6c-1,0-1.8,0.5-1.8,1.4c0,0.9,0.7,1.3,1.6,1.3C84.8,26.7,85.5,26.1,85.8,25.6z"/>
                                        <path fill="#231F20" d="M145.5,28.9v-5.8h3.1v-2.7h-3.1v-0.9c0-1.6,0.7-2.2,1.7-2.2c0.7,0,1.3,0.2,1.7,0.6l1-2.2
                                            c-0.6-0.6-1.8-1.1-3.2-1.1c-2.5,0-4,1.6-4,4.7v9.7H145.5z"/>
                                        <path fill="#231F20" d="M153.7,28.9v-5.8h3.1v-2.7h-3.1v-0.9c0-1.6,0.7-2.2,1.7-2.2c0.7,0,1.3,0.2,1.7,0.6l1-2.2
                                            c-0.6-0.6-1.8-1.1-3.2-1.1c-2.5,0-4,1.6-4,4.7v9.7H153.7z"/>
                                    </g>
                                </g>
                            </svg>