<?xml version="1.0" encoding="utf-8"?>
<!-- Generator: Adobe Illustrator 19.2.0, SVG Export Plug-In . SVG Version: 6.00 Build 0)  -->
<svg version="1.1" id="Слой_1" xmlns="http://www.w3.org/2000/svg" xmlns:xlink="http://www.w3.org/1999/xlink" x="0px" y="0px"
	 viewBox="0 0 100 125" style="enable-background:new 0 0 100 125;" xml:space="preserve">
<style type="text/css">
	.st0{fill:#199DDC;}
</style>
<path class="st0" d="M81.4,40.3c0,2.5-0.6,5.5-1.8,8.9c-0.9,2.6-2.3,5.5-3.9,8.6c-0.4,0.7-1.3,1-2,0.6s-1-1.3-0.6-2
	c1.6-3,2.9-5.7,3.8-8.2c1.1-3,1.6-5.6,1.6-7.8c-0.1-7.8-3.1-15-8.5-20.5c-5.4-5.4-12.6-8.4-20.2-8.4c-7.6,0.1-14.7,3.1-20.1,8.6
	s-8.3,12.8-8.2,20.6c0.1,14.3,23.4,41,28.8,47c0.8-0.9,2-2.3,3.5-4.1c0.5-0.6,1.5-0.7,2.1-0.2s0.7,1.5,0.2,2.1
	c-2.8,3.3-4.7,5.4-4.7,5.4c-0.3,0.3-0.7,0.5-1.1,0.5l0,0c-0.4,0-0.8-0.2-1.1-0.5c-1.3-1.3-30.6-33-30.7-50.3
	C18.4,32,21.7,24,27.6,17.9s13.8-9.5,22.2-9.5c8.4-0.1,16.4,3.2,22.3,9.2C78,23.7,81.4,31.8,81.4,40.3z M63.6,40.1
	c0.1,7.6-6.1,13.8-13.6,13.8h-0.1c-7.5,0-13.7-6.1-13.7-13.6c0-3.7,1.4-7.1,3.9-9.7c2.6-2.6,6-4.1,9.7-4.1
	C57.4,26.5,63.6,32.6,63.6,40.1z M60.6,40.2c0-5.9-4.8-10.6-10.7-10.6h-0.1c-2.9,0-5.5,1.2-7.6,3.2c-2,2-3.1,4.7-3.1,7.6
	c0,5.9,4.8,10.6,10.7,10.6c0,0,0,0,0.1,0c2.9,0,5.5-1.2,7.6-3.2C59.6,45.7,60.7,43,60.6,40.2z M59.2,63.7c0-1.5,0.6-2.9,1.6-4
	s2.4-1.7,3.9-1.7l0,0c3.1,0,5.6,2.5,5.6,5.5c0,3.1-2.5,5.6-5.5,5.6l0,0c-1.5,0-2.9-0.6-3.9-1.6C59.8,66.6,59.2,65.2,59.2,63.7z
	 M62.2,63.7c0,0.7,0.3,1.3,0.8,1.8s1.1,0.7,1.8,0.7c1.4,0,2.6-1.2,2.6-2.6S66.2,61,64.8,61l0,0c-0.7,0-1.3,0.3-1.8,0.8
	C62.5,62.3,62.2,63,62.2,63.7z M64.9,69.9C64.9,69.9,64.8,69.9,64.9,69.9c-5.4,0-9.7,4.4-9.7,9.7h3c0-1.8,0.7-3.5,1.9-4.7
	c1.2-1.3,2.9-2,4.7-2l0,0c1.8,0,3.4,0.7,4.7,1.9c1.3,1.2,2,2.9,2,4.7h3C74.5,74.2,70.2,69.9,64.9,69.9z"/>
</svg>
