<?xml version="1.0" encoding="utf-8"?>
<!-- Generator: Adobe Illustrator 19.2.0, SVG Export Plug-In . SVG Version: 6.00 Build 0)  -->
<svg version="1.1" id="Слой_1" xmlns="http://www.w3.org/2000/svg" xmlns:xlink="http://www.w3.org/1999/xlink" x="0px" y="0px"
	 viewBox="0 0 100 125" style="enable-background:new 0 0 100 125;" xml:space="preserve">
<style type="text/css">
	.st0{fill:#199DDC;}
</style>
<g>
	<g>
		<path class="st0" d="M5.9,94.2c-0.7,0-1.2-0.5-1.2-1.2V9.4c0-0.7,0.5-1.2,1.2-1.2h72c0.7,0,1.2,0.5,1.2,1.2v5l2.1-4h0.1
			c0,0,0.1-0.1,0.1-0.2C84.2,6.7,86.5,6,88,6c0.6,0,1.4,0.2,2,0.5c1.7,0.9,3.4,3,2.2,8.2l1.2,0.6c0.8,0.4,1.4,1.1,1.7,2
			c0.3,0.8,0.2,1.7-0.2,2.5v0.1L86.5,36c-0.4,0.8-1.2,1.3-2.1,1.3c-0.3,0-0.7-0.1-1-0.2c-1.1-0.6-1.5-2-1-3.1l3.4-6.6l-3.4,6.5
			l-1.3,2.5l-2,3.8v38.3c0,0.3-0.1,0.6-0.3,0.7l-0.2,0.2h-0.1L59.4,93.9L59.2,94c-0.1,0.1-0.3,0.2-0.5,0.2H5.9z M57.6,91.8L59,78.2
			c0.1-0.6,0.6-1.1,1.2-1.1l16.9,0.1V44.7l-9.8,19c0,0.2-0.2,0.3-0.3,0.4l-9.8,8c0,0.1-0.1,0.1-0.1,0.2c-1,2-2.9,4.2-3.1,4.5
			c-1.7,2-3.2,3.1-4.4,3.1c-0.1,0-0.1,0-0.2,0c-0.3-0.1-0.4-0.2-0.6-0.2c-1.3,0.9-2.7,1.4-4,2c-0.1,0-0.2,0.1-0.4,0.2
			c-0.1,0-0.2,0.1-0.3,0.1c-0.2,0.2-0.4,0.3-0.6,0.4c-0.3,0.2-0.5,0.4-0.8,0.6c-0.9,0.8-1.8,1.6-3,1.7h-0.1c-0.2,0-0.5,0-0.8-0.3
			s-0.4-0.5-0.4-0.9c0.1-2.1,2.9-3,4.4-3.5c0.1-0.1,0.1-0.1,0.3-0.1c1.3-0.8,2.1-1.5,2.6-2.1h-0.4c-1.6,0-3.3,0-5-0.5
			c-0.4-0.1-0.8-0.5-0.8-1.1c-0.1-1.6,1.1-3.1,3.3-4c1-0.4,2-0.6,2.9-0.6c1.2,0,2.1,0.3,2.7,1c0.2,0.3,0.3,0.6,0.3,0.9
			s-0.2,0.5-0.4,0.7s-0.5,0.3-0.8,0.3s-0.6-0.2-0.8-0.4c-0.1,0-0.5-0.2-1-0.2s-1.2,0.1-2,0.5c-0.6,0.2-1.2,0.6-1.5,0.9
			c1,0.1,2,0.1,3.1,0.1h1.9c0.6,0,1.1,0.5,1.1,1.1c0,0.2,0,0.5-0.1,0.7c0.1-0.1,0.2-0.2,0.4-0.4l0.1-0.1c0.2-0.5,0.6-1.1,1.1-1.7
			c0.6-0.8,1.1-1.6,1.1-2.3c0-0.7,0.5-1.2,1.1-1.2s1.2,0.4,1.2,1.1c0,0.4,0,0.8-0.1,1.2c1.7-2.2,2-3.3,1.9-3.4
			c0-0.4,0.1-0.7,0.2-0.9l1.1-10.8c0-0.1,0-0.3,0.2-0.5l14-27.1l1.4-2.5l5-9.6v-8.2H7v81.3h50.6V91.8z M60,90.5l14.6-10.9l-13.5-0.1
			L60,90.5z M57.5,68.5l7.5-6.1l13.5-25.9L72,33L58.5,59L57.5,68.5z M79.7,34.3l0.2-0.5l-6.6-3.4l-0.2,0.5L79.7,34.3z M80.9,31.8
			l7.9-15l1-2c0.3-1.2,1.3-5.2-0.9-6.3c-0.3-0.2-0.6-0.3-1-0.3c-1.8,0-4,2.3-4.8,3.4l-8.8,16.8L80.9,31.8z M91.3,16.8
			c1,0.7,1.4,2,1,3.1l0.6-1.1c0.2-0.3,0.2-0.6,0.1-0.8c-0.1-0.3-0.3-0.5-0.6-0.7l-1-0.6L91.3,16.8z"/>
	</g>
	<g>
		<path class="st0" d="M15,24c-0.6,0-1.2-0.4-1.2-1.1s0.5-1.2,1.2-1.2h51c0.7,0,1.2,0.5,1.2,1.1c0,0.7-0.5,1.2-1.2,1.2H15z"/>
	</g>
	<g>
		<path class="st0" d="M15,49.8c-0.5,0-1-0.4-1.2-1.1c0-0.7,0.5-1.2,1.2-1.2h39.1c0.7,0,1.2,0.5,1.2,1.2s-0.5,1.2-1.2,1.2H15V49.8z"
			/>
	</g>
	<g>
		<path class="st0" d="M15,62.9c-0.7,0-1.2-0.5-1.2-1.2s0.5-1.2,1.2-1.2h19.8c0.5,0,1.1,0.4,1.1,1.2c0,0.7-0.5,1.2-1.2,1.2H15z"/>
	</g>
	<g>
		<path class="st0" d="M15,36.9c-0.5,0-1.1-0.5-1.2-1.1c0-0.7,0.5-1.2,1.2-1.2h46c0.7,0,1.2,0.5,1.2,1.2S61.7,37,61,37H15V36.9z"/>
	</g>
</g>
</svg>
