<?xml version="1.0" encoding="utf-8"?>
<!-- Generator: Adobe Illustrator 19.2.0, SVG Export Plug-In . SVG Version: 6.00 Build 0)  -->
<svg version="1.1" id="Слой_1" xmlns="http://www.w3.org/2000/svg" xmlns:xlink="http://www.w3.org/1999/xlink" x="0px" y="0px"
	 viewBox="0 0 128 160" style="enable-background:new 0 0 128 160;" xml:space="preserve">
<style type="text/css">
	.st0{fill:#199DDC;}
</style>
<g>
	<path class="st0" d="M57.5,57.5h-57v-57h57V57.5z M4.5,53.6h49.1V4.5H4.5V53.6z"/>
	<path class="st0" d="M127.5,127.5h-57v-57h57V127.5z M74.4,123.5h49.1V74.4H74.4V123.5z"/>
	<path class="st0" d="M57.5,127.5h-57v-57h57V127.5z M4.5,123.5h49.1V74.4H4.5V123.5z"/>
	<path class="st0" d="M127.5,57.5h-57v-57h57V57.5z M74.4,53.6h49.1V4.5H74.4V53.6z"/>
	<rect x="28" y="16" class="st0" width="2" height="26"/>
	<rect x="16" y="28" class="st0" width="26" height="2"/>
	<rect x="16" y="98" class="st0" width="26" height="2"/>
	<rect x="86" y="21.3" class="st0" width="26" height="2"/>
	<rect x="86" y="34.8" class="st0" width="26" height="2"/>
	<rect x="86" y="98" transform="matrix(0.7071 -0.7071 0.7071 0.7071 -41.0163 98.9915)" class="st0" width="26" height="2"/>
	<rect x="98" y="86" transform="matrix(0.7071 -0.7071 0.7071 0.7071 -41.0172 98.9893)" class="st0" width="2" height="26"/>
</g>
</svg>
